<?xml version="1.0" encoding="utf-8"?>

<!DOCTYPE svg PUBLIC "-//W3C//DTD SVG 1.0//EN" "http://www.w3.org/TR/2001/REC-SVG-20010904/DTD/svg10.dtd">
<!-- Uploaded to: SVG Repo, www.svgrepo.com, Generator: SVG Repo Mixer Tools -->
<svg version="1.0" id="Layer_1" xmlns="http://www.w3.org/2000/svg" xmlns:xlink="http://www.w3.org/1999/xlink" 
	 width="800px" height="800px" viewBox="0 0 64 64" enable-background="new 0 0 64 64" xml:space="preserve">
<path fill-rule="evenodd" clip-rule="evenodd" fill="#231F20" d="M53.802,25.104C52.003,24.4,50.05,24,48,24c-0.553,0-1-0.447-1-1
	s0.447-1,1-1c1.841,0,3.607,0.297,5.278,0.812C50.992,14.287,43.246,8,34,8c-7.532,0-14.079,4.172-17.49,10.324
	c1.515,0.393,2.89,1.133,4.037,2.128c0,0,1.182,1.028,0.433,1.777s-1.847-0.363-1.847-0.363c-1.142-0.957-2.556-1.593-4.106-1.792
	C14.689,20.03,14.349,20,14,20c-4.418,0-8,3.582-8,8c0,1.1,0.228,2.145,0.632,3.098C8.286,30.404,10.092,30,12,30
	c0.553,0,1,0.447,1,1s-0.447,1-1,1c-1.585,0-3.091,0.318-4.474,0.879c-0.123,0.05-0.243,0.105-0.364,0.158
	c-0.389,0.174-0.772,0.356-1.138,0.568C2.426,35.675,0,39.551,0,44c0,6.627,5.373,12,12,12h36c8.837,0,16-7.164,16-16
	C64,33.214,59.767,27.43,53.802,25.104z M23,45c-0.553,0-1-0.447-1-1c0-2.762-1.119-5.262-2.929-7.071c0,0-0.993-0.913-0.243-1.647
	s1.657,0.233,1.657,0.233C22.656,37.687,24,40.687,24,44C24,44.553,23.553,45,23,45z M57,41c-0.553,0-1-0.447-1-1
	c0-4.418-3.582-8-8-8c-0.553,0-1-0.447-1-1s0.447-1,1-1c5.522,0,10,4.477,10,10C58,40.553,57.553,41,57,41z"/>
</svg>