<?xml version="1.0" encoding="UTF-8" standalone="no" ?>
<!DOCTYPE svg PUBLIC "-//W3C//DTD SVG 1.1//EN" "http://www.w3.org/Graphics/SVG/1.1/DTD/svg11.dtd">
<svg xmlns="http://www.w3.org/2000/svg" xmlns:xlink="http://www.w3.org/1999/xlink" version="1.1" width="1080" height="1080" viewBox="0 0 1080 1080" xml:space="preserve">
<desc>Created with Fabric.js 5.2.4</desc>
<defs>
</defs>
<rect x="0" y="0" width="100%" height="100%" fill="transparent"></rect>
<g transform="matrix(1 0 0 1 540 540)" id="58e26bd7-c3b5-4da9-8611-e90e288b822f"  >
</g>
<g transform="matrix(1 0 0 1 540 540)" id="c9d1a97b-6594-458b-90fb-8232598b0156"  >
<rect style="stroke: none; stroke-width: 1; stroke-dasharray: none; stroke-linecap: butt; stroke-dashoffset: 0; stroke-linejoin: miter; stroke-miterlimit: 4; fill: rgb(255,255,255); fill-rule: nonzero; opacity: 1; visibility: hidden;" vector-effect="non-scaling-stroke"  x="-540" y="-540" rx="0" ry="0" width="1080" height="1080" />
</g>
<g transform="matrix(3.07 0 0 3.07 510.1 511.17)"  >
<path style="stroke: rgb(0,0,0); stroke-width: 0; stroke-dasharray: none; stroke-linecap: butt; stroke-dashoffset: 0; stroke-linejoin: miter; stroke-miterlimit: 4; fill: rgb(0,0,0); fill-rule: nonzero; opacity: 1;" vector-effect="non-scaling-stroke"  transform=" translate(-124, -128.01)" d="M 227.8 52.2 C 222.54889929624906 46.948363442305734 215.42655674825454 43.99797969490827 208 43.99797969490827 C 200.5734432517455 43.99797969490827 193.45110070375097 46.94836344230575 188.2 52.20000000000002 L 188.20000000000002 52.2 C 185.7140884845963 54.6884143331699 183.7192923415952 57.622935870067764 182.32000000000002 60.85000000000001 L 147.77000000000004 51.43 C 149.22493457044723 39.574107016736676 142.99848311924316 28.100670507135263 132.26507876525017 22.85919514150025 C 121.53167441125714 17.61771977586524 108.6550107257041 19.76247508666769 100.19999999999999 28.200000000000006 L 100.2 28.2 C 90.75560695214308 37.64941917824091 89.30269332398836 52.45490214410569 96.73 63.56 L 57.92 98.49 C 46.79584206290741 89.22127680186614 30.43987376682618 89.9627589276959 20.200000000000003 100.19999999999999 L 20.2 100.2 C 9.26476195335029 111.13523804664972 9.264761953350282 128.8647619533503 20.199999999999996 139.8 C 31.13523804664971 150.73523804664973 48.864761953350296 150.73523804664973 59.8 139.8 L 59.98 139.61 L 135.29 194.84 C 129.95876401415327 204.85088530572625 131.19336115982526 217.0890849735576 138.41663971083096 225.8334630941431 C 145.63991826183664 234.57784121472858 157.4248958497488 238.10091721081727 168.26230965004225 234.75571708789454 C 179.0997234503357 231.4105169649718 186.8486068225622 221.85789597880054 187.88649763001166 210.5635308167826 C 188.92438843746115 199.26916565476463 183.04624794708116 188.46429519755122 173 183.2 L 202.55 99.44999999999999 C 211.71591638600427 101.27364456122025 221.18742719777256 98.40405811725877 227.8 91.8 C 233.05163655769428 86.54889929624903 236.00202030509175 79.42655674825451 236.00202030509175 72 C 236.00202030509175 64.57344325174549 233.05163655769428 57.45110070375097 227.8 52.20000000000001 Z M 105.86 33.86 L 105.86 33.86 C 111.57948474615758 28.13878770855036 120.18231517242688 26.426565500798805 127.65654449238096 29.521831550446603 C 135.13077381233506 32.617097600094404 140.00427092500706 39.91020545097938 140.00427092500706 47.99999999999999 C 140.00427092500706 56.08979454902061 135.13077381233506 63.38290239990559 127.65654449238097 66.4781684495534 C 120.18231517242688 69.5734344992012 111.57948474615759 67.86121229144965 105.86000000000001 62.140000000000015 C 98.05236123334274 54.33000297028372 98.05236123334274 41.669997029716285 105.86 33.86 Z M 25.86 134.14 C 18.052361233342744 126.3300029702837 18.05236123334274 113.66999702971627 25.859999999999996 105.85999999999999 L 25.86 105.85999999999999 C 31.57948474615757 100.13878770855034 40.18231517242688 98.42656550079879 47.65654449238097 101.52183155044659 C 55.13077381233505 104.61709760009438 60.004270925007056 111.91020545097936 60.004270925007056 119.99999999999999 C 60.004270925007056 128.08979454902058 55.13077381233506 135.3829023999056 47.656544492380974 138.47816844955338 C 40.18231517242689 141.5734344992012 31.579484746157586 139.86121229144965 25.860000000000007 134.14 Z M 174.14 222.14 C 166.29242226071378 229.719444190162 153.8183044595777 229.61104747794192 146.10362849081787 221.8963715091821 C 138.38895252205805 214.18169554042228 138.280555809838 201.7075777392862 145.85999999999999 193.85999999999999 L 145.85999999999999 193.85999999999999 C 153.7075777392862 186.28055580983798 166.18169554042225 186.38895252205805 173.8963715091821 194.10362849081787 C 181.61104747794192 201.8183044595777 181.719444190162 214.29242226071378 174.14 222.14 Z M 165.45 180.54999999999998 C 156.28408361399573 178.72635543877973 146.81257280222744 181.59594188274122 140.2 188.2 L 140.2 188.2 L 140.01999999999998 188.39 L 64.71 133.16 C 69.54467186711307 124.04954625005962 68.99171677167821 113.02116406888678 63.27 104.44 L 102.08 69.50999999999999 C 108.85541865524014 75.15255198970635 117.89289674617046 77.27402164556894 126.47134409889125 75.2356566323995 C 135.04979145161204 73.19729161923007 142.1669804904228 67.2372359206125 145.68 59.150000000000006 L 180.23000000000002 68.57 C 178.79799834868328 80.13692204631046 184.68103537606333 91.38121014942075 195 96.8 Z M 222.14 86.13999999999999 C 214.29242226071378 93.71944419016198 201.8183044595777 93.61104747794192 194.10362849081787 85.8963715091821 C 186.38895252205805 78.18169554042228 186.280555809838 65.7075777392862 193.85999999999999 57.859999999999985 L 193.85999999999999 57.859999999999985 C 201.7075777392862 50.280555809837985 214.18169554042225 50.38895252205804 221.8963715091821 58.10362849081787 C 229.61104747794192 65.81830445957769 229.719444190162 78.29242226071378 222.14 86.13999999999999 Z" stroke-linecap="round" />
</g>
<g transform="matrix(0 0 0 0 0 0)"  >
<g style=""   >
</g>
</g>
<g transform="matrix(NaN NaN NaN NaN 0 0)"  >
<g style=""   >
</g>
</g>
<g transform="matrix(13.99 0 0 13.99 859.13 777.94)"  >
<g style=""   >
		<g transform="matrix(1 0 0 1 0 0)" id="SVGRepo_iconCarrier"  >
<path style="stroke: none; stroke-width: 1; stroke-dasharray: none; stroke-linecap: butt; stroke-dashoffset: 0; stroke-linejoin: miter; stroke-miterlimit: 4; fill: rgb(0,0,0); fill-rule: nonzero; opacity: 1;" vector-effect="non-scaling-stroke"  transform=" translate(-12, -12)" d="M 5.50506 11.4096 L 6.03539 11.9399 L 5.50506 11.4096 Z M 3 14.9522 L 2.25 14.9522 L 3 14.9522 Z M 12.5904 18.4949 L 12.0601 17.9646 L 12.5904 18.4949 Z M 9.04776 21 L 9.04776 21.75 L 9.04776 21 Z M 11.4096 5.50506 L 10.8792 4.97473 L 11.4096 5.50506 Z M 13.241 17.8444 C 13.5339 18.1373 14.0088 18.1373 14.3017 17.8444 C 14.5946 17.5515 14.5946 17.0766 14.3017 16.7837 L 13.241 17.8444 Z M 7.21629 9.69832 C 6.9234 9.40543 6.44852 9.40543 6.15563 9.69832 C 5.86274 9.99122 5.86274 10.4661 6.15563 10.759 L 7.21629 9.69832 Z M 16.073 16.073 C 16.3659 15.7801 16.3659 15.3053 16.073 15.0124 C 15.7801 14.7195 15.3053 14.7195 15.0124 15.0124 L 16.073 16.073 Z M 18.4676 11.5559 C 18.1759 11.8499 18.1777 12.3248 18.4718 12.6165 C 18.7658 12.9083 19.2407 12.9064 19.5324 12.6124 L 18.4676 11.5559 Z M 6.03539 11.9399 L 11.9399 6.03539 L 10.8792 4.97473 L 4.97473 10.8792 L 6.03539 11.9399 Z M 6.03539 17.9646 C 5.18538 17.1146 4.60235 16.5293 4.22253 16.0315 C 3.85592 15.551 3.75 15.2411 3.75 14.9522 L 2.25 14.9522 C 2.25 15.701 2.56159 16.3274 3.03 16.9414 C 3.48521 17.538 4.1547 18.2052 4.97473 19.0253 L 6.03539 17.9646 Z M 4.97473 10.8792 C 4.1547 11.6993 3.48521 12.3665 3.03 12.9631 C 2.56159 13.577 2.25 14.2035 2.25 14.9522 L 3.75 14.9522 C 3.75 14.6633 3.85592 14.3535 4.22253 13.873 C 4.60235 13.3752 5.18538 12.7899 6.03539 11.9399 L 4.97473 10.8792 Z M 12.0601 17.9646 C 11.2101 18.8146 10.6248 19.3977 10.127 19.7775 C 9.64651 20.1441 9.33665 20.25 9.04776 20.25 L 9.04776 21.75 C 9.79649 21.75 10.423 21.4384 11.0369 20.97 C 11.6335 20.5148 12.3008 19.8453 13.1208 19.0253 L 12.0601 17.9646 Z M 4.97473 19.0253 C 5.79476 19.8453 6.46201 20.5148 7.05863 20.97 C 7.67256 21.4384 8.29902 21.75 9.04776 21.75 L 9.04776 20.25 C 8.75886 20.25 8.449 20.1441 7.9685 19.7775 C 7.47069 19.3977 6.88541 18.8146 6.03539 17.9646 L 4.97473 19.0253 Z M 17.9646 6.03539 C 18.8146 6.88541 19.3977 7.47069 19.7775 7.9685 C 20.1441 8.449 20.25 8.75886 20.25 9.04776 L 21.75 9.04776 C 21.75 8.29902 21.4384 7.67256 20.97 7.05863 C 20.5148 6.46201 19.8453 5.79476 19.0253 4.97473 L 17.9646 6.03539 Z M 19.0253 4.97473 C 18.2052 4.1547 17.538 3.48521 16.9414 3.03 C 16.3274 2.56159 15.701 2.25 14.9522 2.25 L 14.9522 3.75 C 15.2411 3.75 15.551 3.85592 16.0315 4.22253 C 16.5293 4.60235 17.1146 5.18538 17.9646 6.03539 L 19.0253 4.97473 Z M 11.9399 6.03539 C 12.7899 5.18538 13.3752 4.60235 13.873 4.22253 C 14.3535 3.85592 14.6633 3.75 14.9522 3.75 L 14.9522 2.25 C 14.2035 2.25 13.577 2.56159 12.9631 3.03 C 12.3665 3.48521 11.6993 4.1547 10.8792 4.97473 L 11.9399 6.03539 Z M 14.3017 16.7837 L 7.21629 9.69832 L 6.15563 10.759 L 13.241 17.8444 L 14.3017 16.7837 Z M 15.0124 15.0124 L 12.0601 17.9646 L 13.1208 19.0253 L 16.073 16.073 L 15.0124 15.0124 Z M 19.5324 12.6124 C 20.1932 11.9464 20.7384 11.3759 21.114 10.8404 C 21.5023 10.2869 21.75 9.71511 21.75 9.04776 L 20.25 9.04776 C 20.25 9.30755 20.1644 9.58207 19.886 9.979 C 19.5949 10.394 19.1401 10.8781 18.4676 11.5559 L 19.5324 12.6124 Z" stroke-linecap="round" />
</g>
		<g transform="matrix(1 0 0 1 3 9)" id="SVGRepo_iconCarrier"  >
<path style="stroke: rgb(0,0,0); stroke-width: 1.5; stroke-dasharray: none; stroke-linecap: round; stroke-dashoffset: 0; stroke-linejoin: miter; stroke-miterlimit: 4; fill: none; fill-rule: nonzero; opacity: 1;" vector-effect="non-scaling-stroke"  transform=" translate(-15, -21)" d="M 9 21 L 21 21" stroke-linecap="round" />
</g>
</g>
</g>
<g transform="matrix(NaN NaN NaN NaN 0 0)"  >
<g style=""   >
</g>
</g>
</svg>