<?xml version="1.0" encoding="UTF-8" standalone="no" ?>
<!DOCTYPE svg PUBLIC "-//W3C//DTD SVG 1.1//EN" "http://www.w3.org/Graphics/SVG/1.1/DTD/svg11.dtd">
<svg xmlns="http://www.w3.org/2000/svg" xmlns:xlink="http://www.w3.org/1999/xlink" version="1.1" width="1080" height="1080" viewBox="0 0 1080 1080" xml:space="preserve">
<desc>Created with Fabric.js 5.2.4</desc>
<defs>
</defs>
<g transform="matrix(1 0 0 1 540 540)" id="58e26bd7-c3b5-4da9-8611-e90e288b822f"  >
</g>
<g transform="matrix(1 0 0 1 540 540)" id="c9d1a97b-6594-458b-90fb-8232598b0156"  >
<rect style="stroke: none; stroke-width: 1; stroke-dasharray: none; stroke-linecap: butt; stroke-dashoffset: 0; stroke-linejoin: miter; stroke-miterlimit: 4; fill: rgb(255,255,255); fill-rule: nonzero; opacity: 1; visibility: hidden;" vector-effect="non-scaling-stroke"  x="-540" y="-540" rx="0" ry="0" width="1080" height="1080" />
</g>
<g transform="matrix(3.07 0 0 3.07 510.1 511.17)"  >
<path style="stroke: rgb(0,0,0); stroke-width: 0; stroke-dasharray: none; stroke-linecap: butt; stroke-dashoffset: 0; stroke-linejoin: miter; stroke-miterlimit: 4; fill: rgb(0,0,0); fill-rule: nonzero; opacity: 1;" vector-effect="non-scaling-stroke"  transform=" translate(-124, -128.01)" d="M 227.8 52.2 C 222.54889929624906 46.948363442305734 215.42655674825454 43.99797969490827 208 43.99797969490827 C 200.5734432517455 43.99797969490827 193.45110070375097 46.94836344230575 188.2 52.20000000000002 L 188.20000000000002 52.2 C 185.7140884845963 54.6884143331699 183.7192923415952 57.622935870067764 182.32000000000002 60.85000000000001 L 147.77000000000004 51.43 C 149.22493457044723 39.574107016736676 142.99848311924316 28.100670507135263 132.26507876525017 22.85919514150025 C 121.53167441125714 17.61771977586524 108.6550107257041 19.76247508666769 100.19999999999999 28.200000000000006 L 100.2 28.2 C 90.75560695214308 37.64941917824091 89.30269332398836 52.45490214410569 96.73 63.56 L 57.92 98.49 C 46.79584206290741 89.22127680186614 30.43987376682618 89.9627589276959 20.200000000000003 100.19999999999999 L 20.2 100.2 C 9.26476195335029 111.13523804664972 9.264761953350282 128.8647619533503 20.199999999999996 139.8 C 31.13523804664971 150.73523804664973 48.864761953350296 150.73523804664973 59.8 139.8 L 59.98 139.61 L 135.29 194.84 C 129.95876401415327 204.85088530572625 131.19336115982526 217.0890849735576 138.41663971083096 225.8334630941431 C 145.63991826183664 234.57784121472858 157.4248958497488 238.10091721081727 168.26230965004225 234.75571708789454 C 179.0997234503357 231.4105169649718 186.8486068225622 221.85789597880054 187.88649763001166 210.5635308167826 C 188.92438843746115 199.26916565476463 183.04624794708116 188.46429519755122 173 183.2 L 202.55 99.44999999999999 C 211.71591638600427 101.27364456122025 221.18742719777256 98.40405811725877 227.8 91.8 C 233.05163655769428 86.54889929624903 236.00202030509175 79.42655674825451 236.00202030509175 72 C 236.00202030509175 64.57344325174549 233.05163655769428 57.45110070375097 227.8 52.20000000000001 Z M 105.86 33.86 L 105.86 33.86 C 111.57948474615758 28.13878770855036 120.18231517242688 26.426565500798805 127.65654449238096 29.521831550446603 C 135.13077381233506 32.617097600094404 140.00427092500706 39.91020545097938 140.00427092500706 47.99999999999999 C 140.00427092500706 56.08979454902061 135.13077381233506 63.38290239990559 127.65654449238097 66.4781684495534 C 120.18231517242688 69.5734344992012 111.57948474615759 67.86121229144965 105.86000000000001 62.140000000000015 C 98.05236123334274 54.33000297028372 98.05236123334274 41.669997029716285 105.86 33.86 Z M 25.86 134.14 C 18.052361233342744 126.3300029702837 18.05236123334274 113.66999702971627 25.859999999999996 105.85999999999999 L 25.86 105.85999999999999 C 31.57948474615757 100.13878770855034 40.18231517242688 98.42656550079879 47.65654449238097 101.52183155044659 C 55.13077381233505 104.61709760009438 60.004270925007056 111.91020545097936 60.004270925007056 119.99999999999999 C 60.004270925007056 128.08979454902058 55.13077381233506 135.3829023999056 47.656544492380974 138.47816844955338 C 40.18231517242689 141.5734344992012 31.579484746157586 139.86121229144965 25.860000000000007 134.14 Z M 174.14 222.14 C 166.29242226071378 229.719444190162 153.8183044595777 229.61104747794192 146.10362849081787 221.8963715091821 C 138.38895252205805 214.18169554042228 138.280555809838 201.7075777392862 145.85999999999999 193.85999999999999 L 145.85999999999999 193.85999999999999 C 153.7075777392862 186.28055580983798 166.18169554042225 186.38895252205805 173.8963715091821 194.10362849081787 C 181.61104747794192 201.8183044595777 181.719444190162 214.29242226071378 174.14 222.14 Z M 165.45 180.54999999999998 C 156.28408361399573 178.72635543877973 146.81257280222744 181.59594188274122 140.2 188.2 L 140.2 188.2 L 140.01999999999998 188.39 L 64.71 133.16 C 69.54467186711307 124.04954625005962 68.99171677167821 113.02116406888678 63.27 104.44 L 102.08 69.50999999999999 C 108.85541865524014 75.15255198970635 117.89289674617046 77.27402164556894 126.47134409889125 75.2356566323995 C 135.04979145161204 73.19729161923007 142.1669804904228 67.2372359206125 145.68 59.150000000000006 L 180.23000000000002 68.57 C 178.79799834868328 80.13692204631046 184.68103537606333 91.38121014942075 195 96.8 Z M 222.14 86.13999999999999 C 214.29242226071378 93.71944419016198 201.8183044595777 93.61104747794192 194.10362849081787 85.8963715091821 C 186.38895252205805 78.18169554042228 186.280555809838 65.7075777392862 193.85999999999999 57.859999999999985 L 193.85999999999999 57.859999999999985 C 201.7075777392862 50.280555809837985 214.18169554042225 50.38895252205804 221.8963715091821 58.10362849081787 C 229.61104747794192 65.81830445957769 229.719444190162 78.29242226071378 222.14 86.13999999999999 Z" stroke-linecap="round" />
</g>
<g transform="matrix(12.54 0 0 12.54 850.4 768.29)"  >
<path style="stroke: none; stroke-width: 1; stroke-dasharray: none; stroke-linecap: butt; stroke-dashoffset: 0; stroke-linejoin: miter; stroke-miterlimit: 4; fill: rgb(0,0,0); fill-rule: evenodd; opacity: 1;"  transform=" translate(-12, -12)" d="M 6.30147 15.5771 C 4.77832 14.2684 3.6904 12.7726 3.18002 12 C 3.6904 11.2274 4.77832 9.73158 6.30147 8.42294 C 7.87402 7.07185 9.81574 6 12 6 C 14.1843 6 16.1261 7.07185 17.6986 8.42294 C 19.2218 9.73158 20.3097 11.2274 20.8201 12 C 20.3097 12.7726 19.2218 14.2684 17.6986 15.5771 C 16.1261 16.9282 14.1843 18 12 18 C 9.81574 18 7.87402 16.9282 6.30147 15.5771 Z M 12 4 C 9.14754 4 6.75717 5.39462 4.99812 6.90595 C 3.23268 8.42276 2.00757 10.1376 1.46387 10.9698 C 1.05306 11.5985 1.05306 12.4015 1.46387 13.0302 C 2.00757 13.8624 3.23268 15.5772 4.99812 17.0941 C 6.75717 18.6054 9.14754 20 12 20 C 14.8525 20 17.2429 18.6054 19.002 17.0941 C 20.7674 15.5772 21.9925 13.8624 22.5362 13.0302 C 22.947 12.4015 22.947 11.5985 22.5362 10.9698 C 21.9925 10.1376 20.7674 8.42276 19.002 6.90595 C 17.2429 5.39462 14.8525 4 12 4 Z M 10 12 C 10 10.8954 10.8955 10 12 10 C 13.1046 10 14 10.8954 14 12 C 14 13.1046 13.1046 14 12 14 C 10.8955 14 10 13.1046 10 12 Z M 12 8 C 9.7909 8 8.00004 9.79086 8.00004 12 C 8.00004 14.2091 9.7909 16 12 16 C 14.2092 16 16 14.2091 16 12 C 16 9.79086 14.2092 8 12 8 Z" stroke-linecap="round" />
</g>
<g transform="matrix(0 0 0 0 0 0)"  >
<g style=""   >
</g>
</g>
</svg>